# xmcd
#
# Track frame offsets:
# 150
# 18617
# 31647
# 43810
# 59902
# 72397
# 88962
# 104304
# 118382
# 134250
#
# Disc length: 1996 seconds
#
#
# Revision: 2
# Processed by: cddbd v1.4PL0 Copyright (c) Steve Scherf et al.
# Submitted via: FreeRIP 2.52 
#
DISCID=9707ca0a
DTITLE=Reba McEntire - Reba McEntire's Greatest Hits
DYEAR=1987
DGENRE=Country
TTITLE0=Just A Little Love
TTITLE1=He Broke Your Memory Last Night
TTITLE2=How Blue
TTITLE3=Somebody Should Leave
TTITLE4=Have I Got A Deal For You
TTITLE5=Only In My Mind
TTITLE6=Whoever's In New England
TTITLE7=Little Rock
TTITLE8=What Am I Going To Do About You
TTITLE9=One Promise Too Late
EXTD=
EXTT0=
EXTT1=
EXTT2=
EXTT3=
EXTT4=
EXTT5=
EXTT6=
EXTT7=
EXTT8=
EXTT9=
PLAYORDER=
